<svg width="803" height="128" viewBox="0 0 803 128" fill="none" xmlns="http://www.w3.org/2000/svg">
<path d="M70.23 161.727H42.2371C29.07 161.727 18.9118 158.23 11.7497 151.234C4.57465 144.226 1 134.144 1 120.989V41.7511C1 28.5961 4.57465 18.5017 11.7497 11.5063C18.9118 4.51088 29.07 1.01318 42.2371 1.01318H70.23C83.3842 1.01318 93.5552 4.51088 100.717 11.5063C107.88 18.5017 111.467 28.5833 111.467 41.7511V120.989C111.467 134.157 107.88 144.239 100.717 151.234C93.5552 158.23 83.3842 161.727 70.23 161.727ZM47.239 134.234H64.9837C70.32 134.234 74.1003 133.116 76.3506 130.865C78.6008 128.615 79.7195 124.821 79.7195 119.498V43.2556C79.7195 37.919 78.588 34.1384 76.3506 31.8881C74.1003 29.6377 70.3071 28.519 64.9837 28.519H47.239C41.9028 28.519 38.161 29.6506 35.9879 31.8881C33.8148 34.1384 32.7347 37.9319 32.7347 43.2556V119.485C32.7347 124.821 33.8148 128.602 35.9879 130.852C38.1481 133.103 41.9028 134.234 47.239 134.234Z" stroke="#605B59"/>
<path d="M223.683 1.01288H244.681C248.345 1.01288 250.184 2.68457 250.184 6.0151V120.989C250.184 133.99 246.558 144.033 239.306 151.105C232.054 158.191 221.934 161.727 208.934 161.727H181.443C168.276 161.727 158.118 158.229 150.955 151.234C143.793 144.238 140.206 134.157 140.206 120.989V6.25943C140.206 2.76173 141.954 1.01288 145.452 1.01288H166.694C170.192 1.01288 171.94 2.76173 171.94 6.25943V119.485C171.94 124.821 173.072 128.602 175.309 130.852C177.56 133.102 181.263 134.221 186.432 134.221H203.675C209.011 134.221 212.792 133.102 215.042 130.852C217.292 128.602 218.411 124.808 218.411 119.485V6.25943C218.437 2.76173 220.185 1.01288 223.683 1.01288Z" stroke="#605B59"/>
<path d="M331.154 161.727H310.156C306.491 161.727 304.653 159.978 304.653 156.48V31.2577C304.653 29.4317 303.74 28.5058 301.901 28.5058H273.407C269.909 28.5058 268.16 26.757 268.16 23.2593V6.25943C268.16 2.76173 269.909 1.01288 273.407 1.01288H367.878C371.375 1.01288 373.124 2.76173 373.124 6.25943V23.2593C373.124 26.757 371.375 28.5058 367.878 28.5058H339.383C337.377 28.5058 336.387 29.4188 336.387 31.2577V156.48C336.4 159.978 334.651 161.727 331.154 161.727Z" stroke="#605B59"/>
<path d="M479.605 161.727H397.375C393.877 161.727 392.129 159.978 392.129 156.48V6.25943C392.129 2.76173 393.877 1.01288 397.375 1.01288H418.617C422.115 1.01288 423.863 2.76173 423.863 6.25943V131.225C423.863 133.064 424.866 133.977 426.859 133.977H479.592C482.922 133.977 484.594 135.816 484.594 139.481V156.48C484.607 159.978 482.935 161.727 479.605 161.727Z" stroke="#605B59"/>
<path d="M537.339 6.25943V156.48C537.339 159.978 535.591 161.727 532.093 161.727H510.838C507.341 161.727 505.592 159.978 505.592 156.48V6.25943C505.592 2.76173 507.341 1.01288 510.838 1.01288H532.08C535.591 1.01288 537.339 2.76173 537.339 6.25943Z" stroke="#605B59"/>
<path d="M658.054 161.727H576.326C572.829 161.727 571.08 159.978 571.08 156.48V6.25943C571.08 2.76173 572.829 1.01288 576.326 1.01288H658.054C661.385 1.01288 663.056 2.76173 663.056 6.25943V23.2593C663.056 26.757 661.385 28.5058 658.054 28.5058H605.823C603.817 28.5058 602.827 29.4188 602.827 31.2577V63.7528C602.827 65.5917 603.83 66.5047 605.823 66.5047H648.565C652.062 66.5047 653.811 68.2535 653.811 71.7512V88.7511C653.811 92.2488 652.062 93.9976 648.565 93.9976H605.823C603.817 93.9976 602.827 94.9106 602.827 96.7495V131.495C602.827 133.334 603.83 134.247 605.823 134.247H658.054C661.385 134.247 663.056 135.996 663.056 139.493V156.493C663.056 159.978 661.385 161.727 658.054 161.727Z" stroke="#605B59"/>
<path d="M717.281 161.727H696.038C692.541 161.727 690.792 159.978 690.792 156.48V6.25943C690.792 2.76173 692.541 1.01288 696.038 1.01288H755.522C768.521 1.01288 778.68 4.60059 786.009 11.7632C793.338 18.9257 797.003 29.0073 797.003 42.008V61.5025C797.003 80.3283 789.584 92.8274 774.758 98.9999V100.003L801.503 155.735C803.008 159.734 801.581 161.74 797.26 161.74H777.008C774.012 161.74 771.839 161.405 770.515 160.737C769.177 160.068 768.097 158.654 767.261 156.493L742.265 102.51H725.523C723.517 102.51 722.527 103.423 722.527 105.262V156.506C722.527 159.978 720.778 161.727 717.281 161.727ZM725.279 76.9978H749.774C755.11 76.9978 759.019 75.8662 761.527 73.6287C764.021 71.3783 765.281 67.752 765.281 62.7498V43.2553C765.281 38.0988 764.034 34.3439 761.527 32.0035C759.032 29.676 755.11 28.5058 749.774 28.5058H725.279C723.44 28.5058 722.527 29.4188 722.527 31.2577V74.2459C722.527 76.0848 723.44 76.9978 725.279 76.9978Z" stroke="#605B59"/>
</svg>
