<svg xmlns="http://www.w3.org/2000/svg" viewBox="0 0 109.66 109.66"><defs><style>.cls-1{fill:#30bf39;}.cls-2{fill:#f1f2f2;fill-rule:evenodd;}</style></defs><title>Oga DeleAsset 1@4x100</title><g id="Layer_2" data-name="Layer 2"><g id="objects"><circle class="cls-1" cx="54.83" cy="54.83" r="54.83"/><path class="cls-2" d="M71.41,60.84c-.75-.41-4.43-2.4-5.12-2.68s-1.2-.43-1.74.32-2.06,2.41-2.52,2.9-.92.54-1.67.13a20.87,20.87,0,0,1-6-4,23.28,23.28,0,0,1-4-5.45c-.41-.78,0-1.18.4-1.54s.8-.87,1.19-1.3A5,5,0,0,0,52.71,48a1.38,1.38,0,0,0,0-1.34c-.18-.39-1.56-4.21-2.14-5.76s-1.23-1.32-1.67-1.34-1-.1-1.46-.12a2.86,2.86,0,0,0-2.07.88,8.53,8.53,0,0,0-2.91,6.27c-.15,3.76,2.45,7.49,2.82,8s5,8.67,12.61,12,7.69,2.33,9.09,2.25,4.59-1.68,5.29-3.43a6.39,6.39,0,0,0,.58-3.61c-.18-.33-.68-.54-1.43-.95Zm-14,18.1a24.74,24.74,0,0,1-13.69-4.11l-9.57,3.06,3.11-9.25a24.89,24.89,0,1,1,20.15,10.3Zm0-54.81A29.91,29.91,0,0,0,31.77,69.49L26.36,85.54l16.57-5.3A29.92,29.92,0,1,0,57.38,24.13Z"/></g></g></svg>